<svg width="466.9" height="94.604" viewBox="0 0 466.9 94.604" xmlns="http://www.w3.org/2000/svg"><g id="svgGroup" stroke-linecap="round" fill-rule="evenodd" font-size="9pt" stroke="#ffffff" stroke-width="0.0mm" fill="#ffffff" style="stroke:#ffffff;stroke-width:0.0mm;fill:#ffffff"><path d="M 287.2 2.2 L 265.2 50.9 L 243.2 2.2 L 224.9 2.2 L 224.9 72.2 L 239.5 72.2 L 239.5 27.3 L 260 72.2 L 269.8 72.2 L 290.4 27.1 L 290.4 72.2 L 305 72.2 L 305 2.2 L 287.2 2.2 Z M 52.9 49.8 L 52.9 22.8 L 38.3 22.8 L 38.3 53.3 A 26.873 26.873 0 0 0 39.597 61.903 C 41.765 68.32 46.566 72.386 53.365 73.302 A 22.717 22.717 0 0 0 56.4 73.5 C 62.9 73.5 67.9 70.6 70.8 65.9 L 70.8 72.2 L 85.4 72.2 L 85.4 22.8 L 70.8 22.8 L 70.8 48.9 C 70.8 55.884 67.317 59.965 61.873 60.097 A 11.3 11.3 0 0 1 61.6 60.1 A 9.266 9.266 0 0 1 57.579 59.27 C 54.691 57.894 53.07 54.853 52.913 50.509 A 19.591 19.591 0 0 1 52.9 49.8 Z M 333 49.8 L 333 22.8 L 318.4 22.8 L 318.4 53.3 A 26.873 26.873 0 0 0 319.697 61.903 C 321.865 68.32 326.666 72.386 333.465 73.302 A 22.717 22.717 0 0 0 336.5 73.5 C 343 73.5 348 70.6 350.9 65.9 L 350.9 72.2 L 365.5 72.2 L 365.5 22.8 L 350.9 22.8 L 350.9 48.9 C 350.9 55.884 347.417 59.965 341.973 60.097 A 11.3 11.3 0 0 1 341.7 60.1 A 9.266 9.266 0 0 1 337.679 59.27 C 334.791 57.894 333.17 54.853 333.013 50.509 A 19.591 19.591 0 0 1 333 49.8 Z M 417.6 22.8 L 376.1 22.8 L 376.1 34.7 L 398.3 34.7 L 374.7 63 L 374.7 72.2 L 418 72.2 L 418 60.3 L 393.8 60.3 L 417.6 31.7 L 417.6 22.8 Z M 466.5 22.8 L 425 22.8 L 425 34.7 L 447.2 34.7 L 423.6 63 L 423.6 72.2 L 466.9 72.2 L 466.9 60.3 L 442.7 60.3 L 466.5 31.7 L 466.5 22.8 Z M 122.2 39.3 L 134.1 33 C 130.9 26.2 123 21.5 114.5 21.5 A 23.94 23.94 0 0 0 105.708 23.07 A 15.276 15.276 0 0 0 95.4 37.5 C 95.4 45.128 99.782 50.146 108.547 52.463 A 34.438 34.438 0 0 0 109.5 52.7 L 115.3 54.1 C 117.414 54.593 118.783 55.384 119.408 56.404 A 2.628 2.628 0 0 1 119.8 57.8 A 3.414 3.414 0 0 1 117.659 61.007 C 117.087 61.274 116.416 61.454 115.668 61.541 A 9.297 9.297 0 0 1 114.6 61.6 C 110.9 61.6 107.3 59 105.4 54.9 L 93.6 61.4 C 96.9 69 104.6 73.5 114.5 73.5 A 24.112 24.112 0 0 0 124.211 71.574 A 16.105 16.105 0 0 0 134.4 56.6 C 134.4 50.034 130.124 45.179 122.126 42.587 A 34.723 34.723 0 0 0 120.1 42 L 113.9 40.4 A 9.846 9.846 0 0 1 112.266 39.833 C 110.637 39.085 109.8 37.992 109.8 36.6 C 109.8 34.839 111.273 33.543 113.469 33.259 A 7.252 7.252 0 0 1 114.4 33.2 A 6.123 6.123 0 0 1 114.917 33.222 C 117.85 33.471 120.783 35.806 122.2 39.3 Z M 145.5 8.3 L 145.5 22.8 L 138.5 22.8 L 138.5 34.8 L 145.5 34.8 L 145.5 56 A 22.206 22.206 0 0 0 146.627 63.3 C 148.556 68.852 152.879 72.272 158.962 73.165 A 22.978 22.978 0 0 0 162.3 73.4 A 32.093 32.093 0 0 0 165.553 73.242 C 168.544 72.938 170.775 72.225 172.5 71.4 L 172.5 58.8 C 170.9 59.9 169 60.3 167.1 60.3 A 11.112 11.112 0 0 1 164.318 59.99 C 161.407 59.234 160 57.046 160 52.9 L 160 34.8 L 172.5 34.8 L 172.5 22.8 L 160 22.8 L 160 8.3 L 145.5 8.3 Z M 0 80.9 L 0 93.4 A 500.521 500.521 0 0 0 0.586 93.573 C 2.205 94.047 4.289 94.6 7.4 94.6 A 19.86 19.86 0 0 0 16.599 92.553 C 22.458 89.523 25.9 83.196 25.9 74 L 25.9 22.8 L 11.3 22.8 L 11.3 73.2 A 12.907 12.907 0 0 1 10.874 76.641 C 10.057 79.588 8.083 81.386 5.122 81.663 A 8.842 8.842 0 0 1 4.3 81.7 A 13.903 13.903 0 0 1 2.727 81.615 C 2.161 81.551 1.644 81.451 1.171 81.321 A 7.875 7.875 0 0 1 0 80.9 Z M 180.4 52.1 L 212.1 52.1 L 212.1 39 L 180.4 39 L 180.4 52.1 Z M 27.1 8.5 A 8.557 8.557 0 0 0 18.607 0 A 8.825 8.825 0 0 0 18.6 0 A 8.464 8.464 0 0 0 11.705 3.57 A 8.472 8.472 0 0 0 10.1 8.5 A 8.557 8.557 0 0 0 18.593 17 A 8.825 8.825 0 0 0 18.6 17 A 8.464 8.464 0 0 0 25.495 13.43 A 8.472 8.472 0 0 0 27.1 8.5 Z"/></g></svg>